<?xml version="1.0" standalone="no"?>
<!DOCTYPE svg PUBLIC "-//W3C//DTD SVG 20010904//EN"
 "http://www.w3.org/TR/2001/REC-SVG-20010904/DTD/svg10.dtd">
<svg version="1.0" xmlns="http://www.w3.org/2000/svg"
 width="1280.000000pt" height="998.000000pt" viewBox="0 0 1280.000000 998.000000"
 preserveAspectRatio="xMidYMid meet">
<metadata>
Created by potrace 1.15, written by Peter Selinger 2001-2017
</metadata>
<g transform="translate(0.000000,998.000000) scale(0.100000,-0.100000)"
fill="#000000" stroke="none">
<path d="M5837 9962 c-9 -10 -23 -34 -32 -55 -85 -204 209 -862 1020 -2277
223 -390 324 -555 436 -712 295 -412 567 -659 675 -610 37 17 57 74 52 147
-11 146 -225 594 -606 1265 -671 1184 -1394 2260 -1518 2260 -6 0 -18 -8 -27
-18z"/>
<path d="M10770 8310 c-176 -17 -282 -73 -515 -269 -121 -102 -438 -414 -595
-586 -327 -358 -645 -763 -772 -985 -36 -63 -43 -83 -43 -130 0 -162 208 -383
605 -645 154 -101 1232 -746 1242 -743 5 2 96 183 202 403 105 220 212 434
236 475 147 253 303 395 510 464 102 34 173 44 390 55 142 8 208 16 285 36
205 52 374 165 446 297 30 56 34 72 34 138 0 64 -4 83 -30 129 -53 95 -140
158 -308 220 -120 45 -196 88 -275 156 -121 104 -179 205 -193 339 -13 112
-50 185 -142 278 -150 151 -371 266 -637 332 -93 23 -290 48 -345 45 -11 -1
-54 -5 -95 -9z"/>
<path d="M17 7939 c-21 -12 -22 -60 -3 -161 43 -225 180 -442 434 -690 265
-258 572 -477 1097 -783 523 -304 800 -518 861 -662 21 -49 18 -58 -37 -115
-124 -128 -260 -509 -358 -1003 -69 -347 -107 -483 -197 -705 -142 -348 -327
-627 -562 -846 -285 -265 -464 -673 -549 -1254 -21 -147 -24 -567 -4 -720 33
-262 103 -538 170 -668 65 -126 245 -245 459 -304 62 -17 107 -21 232 -22 170
-1 254 11 365 53 84 31 168 106 178 160 23 113 -94 229 -337 336 -205 90 -317
265 -348 545 -19 175 7 382 77 595 64 196 212 443 353 588 106 110 493 384
594 422 27 10 58 15 72 11 49 -12 59 -52 68 -276 13 -314 39 -518 108 -857 62
-303 138 -586 230 -864 147 -440 292 -628 542 -697 49 -13 101 -17 238 -16
199 1 287 15 388 65 85 42 122 92 122 165 0 117 -73 231 -253 397 -304 279
-373 360 -462 542 -155 315 -135 640 66 1044 194 392 630 937 886 1108 203
136 374 161 703 104 584 -102 1367 -231 1775 -291 71 -11 280 -42 463 -70 183
-27 342 -50 354 -50 l21 0 -6 573 c-9 898 -45 1257 -204 2069 l-88 446 -1525
5 c-1518 5 -1691 9 -1995 42 -570 64 -958 217 -1721 678 -104 63 -340 205
-524 317 -764 463 -1295 731 -1553 786 -80 16 -106 17 -130 3z"/>
<path d="M8396 5679 c-59 -14 -94 -39 -131 -94 -86 -127 -119 -336 -135 -860
-19 -605 26 -4217 56 -4500 9 -87 46 -119 184 -161 156 -46 557 -69 804 -45
245 24 244 60 -4 259 -233 186 -329 308 -388 492 -34 104 -44 186 -43 329 1
150 11 241 46 411 68 333 250 867 397 1169 126 258 221 317 287 177 25 -54
152 -395 388 -1041 304 -834 388 -1045 490 -1235 192 -355 376 -486 758 -534
272 -35 476 -29 560 17 138 76 55 217 -343 586 -112 104 -146 143 -213 244
-348 527 -702 1617 -811 2497 -17 141 -17 506 1 585 15 66 40 123 91 203 51
80 53 150 10 240 -40 82 -194 240 -341 349 -171 127 -816 544 -1103 712 -269
158 -456 225 -560 200z"/>
</g>
</svg>
